<svg xmlns="http://www.w3.org/2000/svg" width="1440" height="400" viewBox="0, 0, 1440, 400" xmlns:xlink="http://www.w3.org/1999/xlink">
    <g xmlns="http://www.w3.org/2000/svg" transform="" fill="#bdcdd6">

        <!-- First Row -->
        <g xmlns="http://www.w3.org/2000/svg" transform="translate(380.606 -120)">
            <animateTransform xmlns="http://www.w3.org/2000/svg" attributeName="transform" type="translate" values="-200 -120; 1440 -120" keyTimes="0;1" dur="25s" repeatCount="indefinite" begin="-15.548391482921794s"/>
            <path xmlns="http://www.w3.org/2000/svg" d="M386.604,337.364 C374.598,337.364 364.86,347.103 364.86,359.118 C364.86,359.214 364.867,359.309 364.868,359.405 C350.663,361.383 339.725,373.57 339.725,388.319 C339.725,404.448 352.801,417.524 368.93,417.524 C369.137,417.524 369.34,417.513 369.546,417.509 C369.756,417.515 369.966,417.524 370.178,417.524 L450.966,417.524 C453.151,418.03 455.423,418.306 457.762,418.306 C474.372,418.306 487.837,404.84 487.837,388.23 C487.837,371.62 474.372,358.155 457.762,358.155 C455.692,358.155 453.672,358.364 451.719,358.763 C448.287,348.987 438.981,341.976 428.032,341.976 C419.489,341.976 411.947,346.247 407.413,352.767 C404.695,343.851 396.409,337.364 386.604,337.364 z" transform="scale(0.4)"/>
        </g>

        <g xmlns="http://www.w3.org/2000/svg" transform="translate(980.606 -120)">
            <animateTransform xmlns="http://www.w3.org/2000/svg" attributeName="transform" type="translate" values="-200 -120; 1440 -120" keyTimes="0;1" dur="25s" repeatCount="indefinite" begin="-3.548391482921794s"/>
            <path xmlns="http://www.w3.org/2000/svg" d="M386.604,337.364 C374.598,337.364 364.86,347.103 364.86,359.118 C364.86,359.214 364.867,359.309 364.868,359.405 C350.663,361.383 339.725,373.57 339.725,388.319 C339.725,404.448 352.801,417.524 368.93,417.524 C369.137,417.524 369.34,417.513 369.546,417.509 C369.756,417.515 369.966,417.524 370.178,417.524 L450.966,417.524 C453.151,418.03 455.423,418.306 457.762,418.306 C474.372,418.306 487.837,404.84 487.837,388.23 C487.837,371.62 474.372,358.155 457.762,358.155 C455.692,358.155 453.672,358.364 451.719,358.763 C448.287,348.987 438.981,341.976 428.032,341.976 C419.489,341.976 411.947,346.247 407.413,352.767 C404.695,343.851 396.409,337.364 386.604,337.364 z" transform="scale(0.4)"/>
        </g>
        <!-- ./End First Row -->

        <!-- Second Row -->
        <g xmlns="http://www.w3.org/2000/svg" transform="translate(8.606 7)">
            <animateTransform xmlns="http://www.w3.org/2000/svg" attributeName="transform" type="translate" values="-200 7; 1440 7" keyTimes="0;1" dur="40s" repeatCount="indefinite" begin="-20.548391482921794s"/>
            <path xmlns="http://www.w3.org/2000/svg" d="M229.266,56.542 C214.493,56.542 202.518,68.517 202.518,83.29 C202.518,84.743 202.639,86.168 202.862,87.558 C190.783,87.952 181.108,97.862 181.108,110.038 C181.108,122.464 191.183,132.536 203.608,132.536 L291.102,132.536 C303.527,132.536 313.602,122.464 313.602,110.038 C313.602,98.672 305.172,89.279 294.225,87.759 C291.646,74.529 279.998,64.542 266.014,64.542 C260.73,64.542 255.783,65.974 251.528,68.462 C246.732,61.277 238.553,56.542 229.266,56.542 z" transform="scale(0.6)"/>
        </g>

        <g xmlns="http://www.w3.org/2000/svg" transform="translate(650.606 7)">
            <animateTransform xmlns="http://www.w3.org/2000/svg" attributeName="transform" type="translate" values="-200 7; 1440 7" keyTimes="0;1" dur="40s" repeatCount="indefinite" begin="-0.548391482921794s"/>
            <path xmlns="http://www.w3.org/2000/svg" d="M229.266,56.542 C214.493,56.542 202.518,68.517 202.518,83.29 C202.518,84.743 202.639,86.168 202.862,87.558 C190.783,87.952 181.108,97.862 181.108,110.038 C181.108,122.464 191.183,132.536 203.608,132.536 L291.102,132.536 C303.527,132.536 313.602,122.464 313.602,110.038 C313.602,98.672 305.172,89.279 294.225,87.759 C291.646,74.529 279.998,64.542 266.014,64.542 C260.73,64.542 255.783,65.974 251.528,68.462 C246.732,61.277 238.553,56.542 229.266,56.542 z" transform="scale(0.6)"/>
        </g>
        <!-- ./End Second Row -->

        <!-- Third Row -->
        <g xmlns="http://www.w3.org/2000/svg" transform="translate(208.606 50)">
            <animateTransform xmlns="http://www.w3.org/2000/svg" attributeName="transform" type="translate" values="-200 50; 1440 50" keyTimes="0;1" dur="40s" repeatCount="indefinite" begin="-30.548391482921794s"/>
            <path xmlns="http://www.w3.org/2000/svg" d="M229.266,56.542 C214.493,56.542 202.518,68.517 202.518,83.29 C202.518,84.743 202.639,86.168 202.862,87.558 C190.783,87.952 181.108,97.862 181.108,110.038 C181.108,122.464 191.183,132.536 203.608,132.536 L291.102,132.536 C303.527,132.536 313.602,122.464 313.602,110.038 C313.602,98.672 305.172,89.279 294.225,87.759 C291.646,74.529 279.998,64.542 266.014,64.542 C260.73,64.542 255.783,65.974 251.528,68.462 C246.732,61.277 238.553,56.542 229.266,56.542 z" transform="scale(0.6)"/>
        </g>

        <g xmlns="http://www.w3.org/2000/svg" transform="translate(850 50)">
            <animateTransform xmlns="http://www.w3.org/2000/svg" attributeName="transform" type="translate" values="-200 50; 1440 50" keyTimes="0;1" dur="40s" repeatCount="indefinite" begin="-11.548391482921794s"/>
            <path xmlns="http://www.w3.org/2000/svg" d="M229.266,56.542 C214.493,56.542 202.518,68.517 202.518,83.29 C202.518,84.743 202.639,86.168 202.862,87.558 C190.783,87.952 181.108,97.862 181.108,110.038 C181.108,122.464 191.183,132.536 203.608,132.536 L291.102,132.536 C303.527,132.536 313.602,122.464 313.602,110.038 C313.602,98.672 305.172,89.279 294.225,87.759 C291.646,74.529 279.998,64.542 266.014,64.542 C260.73,64.542 255.783,65.974 251.528,68.462 C246.732,61.277 238.553,56.542 229.266,56.542 z" transform="scale(0.6)"/>
        </g>
        <!-- ./End Third Row -->

        <!-- Fourth Row -->
        <g xmlns="http://www.w3.org/2000/svg" transform="translate(200.606 2)">
            <animateTransform xmlns="http://www.w3.org/2000/svg" attributeName="transform" type="translate" values="-200 2; 1440 2" keyTimes="0;1" dur="25s" repeatCount="indefinite" begin="-10.548391482921794s"/>
            <path xmlns="http://www.w3.org/2000/svg" d="M386.604,337.364 C374.598,337.364 364.86,347.103 364.86,359.118 C364.86,359.214 364.867,359.309 364.868,359.405 C350.663,361.383 339.725,373.57 339.725,388.319 C339.725,404.448 352.801,417.524 368.93,417.524 C369.137,417.524 369.34,417.513 369.546,417.509 C369.756,417.515 369.966,417.524 370.178,417.524 L450.966,417.524 C453.151,418.03 455.423,418.306 457.762,418.306 C474.372,418.306 487.837,404.84 487.837,388.23 C487.837,371.62 474.372,358.155 457.762,358.155 C455.692,358.155 453.672,358.364 451.719,358.763 C448.287,348.987 438.981,341.976 428.032,341.976 C419.489,341.976 411.947,346.247 407.413,352.767 C404.695,343.851 396.409,337.364 386.604,337.364 z" transform="scale(0.4)"/>
        </g>

        <g xmlns="http://www.w3.org/2000/svg" transform="translate(724.606 2)">
            <animateTransform xmlns="http://www.w3.org/2000/svg" attributeName="transform" type="translate" values="-200 2; 1440 2" keyTimes="0;1" dur="25s" repeatCount="indefinite" begin="-21.548391482921794s"/>
            <path xmlns="http://www.w3.org/2000/svg" d="M386.604,337.364 C374.598,337.364 364.86,347.103 364.86,359.118 C364.86,359.214 364.867,359.309 364.868,359.405 C350.663,361.383 339.725,373.57 339.725,388.319 C339.725,404.448 352.801,417.524 368.93,417.524 C369.137,417.524 369.34,417.513 369.546,417.509 C369.756,417.515 369.966,417.524 370.178,417.524 L450.966,417.524 C453.151,418.03 455.423,418.306 457.762,418.306 C474.372,418.306 487.837,404.84 487.837,388.23 C487.837,371.62 474.372,358.155 457.762,358.155 C455.692,358.155 453.672,358.364 451.719,358.763 C448.287,348.987 438.981,341.976 428.032,341.976 C419.489,341.976 411.947,346.247 407.413,352.767 C404.695,343.851 396.409,337.364 386.604,337.364 z" transform="scale(0.4)"/>
        </g>
        <!-- ./End Fourth Row -->

        <!-- Fifth Row -->
        <g xmlns="http://www.w3.org/2000/svg" transform="translate(308.606 45)">
            <animateTransform xmlns="http://www.w3.org/2000/svg" attributeName="transform" type="translate" values="-300 45; 1440 45" keyTimes="0;1" dur="40s" repeatCount="indefinite" begin="-0.548391482921794s"/>
            <path xmlns="http://www.w3.org/2000/svg" d="M407.856,203.05 C400.448,203.05 393.931,206.847 390.127,212.595 C388.982,212.404 387.806,212.3 386.606,212.3 C374.872,212.3 365.358,221.813 365.358,233.548 C365.358,234.022 365.378,234.49 365.409,234.956 C353.541,235.579 344.108,245.399 344.108,257.423 C344.108,269.848 354.183,279.921 366.608,279.921 L454.102,279.921 C466.527,279.921 476.602,269.848 476.602,257.423 C476.602,247.496 470.17,239.076 461.249,236.089 C459.649,225.938 450.863,218.175 440.262,218.175 C436.084,218.175 432.198,219.399 428.913,221.481 C427.533,211.079 418.635,203.05 407.856,203.05 z" transform="scale(0.6)"/>
        </g>

        <g xmlns="http://www.w3.org/2000/svg" transform="translate(650.606 45)">
            <animateTransform xmlns="http://www.w3.org/2000/svg" attributeName="transform" type="translate" values="-300 45; 1440 45" keyTimes="0;1" dur="40s" repeatCount="indefinite" begin="-13.548391482921794s"/>
            <path xmlns="http://www.w3.org/2000/svg" d="M407.856,203.05 C400.448,203.05 393.931,206.847 390.127,212.595 C388.982,212.404 387.806,212.3 386.606,212.3 C374.872,212.3 365.358,221.813 365.358,233.548 C365.358,234.022 365.378,234.49 365.409,234.956 C353.541,235.579 344.108,245.399 344.108,257.423 C344.108,269.848 354.183,279.921 366.608,279.921 L454.102,279.921 C466.527,279.921 476.602,269.848 476.602,257.423 C476.602,247.496 470.17,239.076 461.249,236.089 C459.649,225.938 450.863,218.175 440.262,218.175 C436.084,218.175 432.198,219.399 428.913,221.481 C427.533,211.079 418.635,203.05 407.856,203.05 z" transform="scale(0.6)"/>
        </g>

        <g xmlns="http://www.w3.org/2000/svg" transform="translate(950.606 45)">
            <animateTransform xmlns="http://www.w3.org/2000/svg" attributeName="transform" type="translate" values="-300 45; 1440 45" keyTimes="0;1" dur="40s" repeatCount="indefinite" begin="-27.548391482921794s"/>
            <path xmlns="http://www.w3.org/2000/svg" d="M407.856,203.05 C400.448,203.05 393.931,206.847 390.127,212.595 C388.982,212.404 387.806,212.3 386.606,212.3 C374.872,212.3 365.358,221.813 365.358,233.548 C365.358,234.022 365.378,234.49 365.409,234.956 C353.541,235.579 344.108,245.399 344.108,257.423 C344.108,269.848 354.183,279.921 366.608,279.921 L454.102,279.921 C466.527,279.921 476.602,269.848 476.602,257.423 C476.602,247.496 470.17,239.076 461.249,236.089 C459.649,225.938 450.863,218.175 440.262,218.175 C436.084,218.175 432.198,219.399 428.913,221.481 C427.533,211.079 418.635,203.05 407.856,203.05 z" transform="scale(0.6)"/>
        </g>
        <!-- ./End Fifth Row -->

        <!-- Sixth Row -->
        <g xmlns="http://www.w3.org/2000/svg" transform="translate(90.606 85)">
            <animateTransform xmlns="http://www.w3.org/2000/svg" attributeName="transform" type="translate" values="-100 85; 1440 85" keyTimes="0;1" dur="25s" repeatCount="indefinite" begin="-1.548391482921794s"/>
            <path xmlns="http://www.w3.org/2000/svg" d="M70.856,337.368 C58.845,337.368 49.108,347.104 49.108,359.116 C49.108,359.47 49.117,359.821 49.133,360.171 C46.657,359.488 44.053,359.116 41.36,359.116 C25.231,359.116 12.155,372.19 12.155,388.319 C12.155,404.448 25.231,417.524 41.36,417.524 C41.566,417.524 41.77,417.513 41.975,417.509 C42.186,417.515 42.396,417.524 42.608,417.524 L123.01,417.524 C124.966,418.033 127.018,418.306 129.133,418.306 C142.543,418.306 153.415,407.433 153.415,394.024 C153.415,380.615 142.543,369.745 129.133,369.745 C125.059,369.745 121.222,370.753 117.85,372.526 L114.67,372.526 C114.67,361.67 105.87,352.868 95.014,352.868 C93.907,352.868 92.822,352.964 91.764,353.14 C89.167,344.036 80.793,337.368 70.856,337.368 z" transform="scale(0.4)"/>
        </g>

        <g xmlns="http://www.w3.org/2000/svg" transform="translate(700.606 85)">
            <animateTransform xmlns="http://www.w3.org/2000/svg" attributeName="transform" type="translate" values="-100 85; 1440 85" keyTimes="0;1" dur="25s" repeatCount="indefinite" begin="-14.548391482921794s"/>
            <path xmlns="http://www.w3.org/2000/svg" d="M70.856,337.368 C58.845,337.368 49.108,347.104 49.108,359.116 C49.108,359.47 49.117,359.821 49.133,360.171 C46.657,359.488 44.053,359.116 41.36,359.116 C25.231,359.116 12.155,372.19 12.155,388.319 C12.155,404.448 25.231,417.524 41.36,417.524 C41.566,417.524 41.77,417.513 41.975,417.509 C42.186,417.515 42.396,417.524 42.608,417.524 L123.01,417.524 C124.966,418.033 127.018,418.306 129.133,418.306 C142.543,418.306 153.415,407.433 153.415,394.024 C153.415,380.615 142.543,369.745 129.133,369.745 C125.059,369.745 121.222,370.753 117.85,372.526 L114.67,372.526 C114.67,361.67 105.87,352.868 95.014,352.868 C93.907,352.868 92.822,352.964 91.764,353.14 C89.167,344.036 80.793,337.368 70.856,337.368 z" transform="scale(0.4)"/>
        </g>
        <!-- ./End Sixth Row -->

        <!-- Seventh Row -->
        <g xmlns="http://www.w3.org/2000/svg" transform="translate(380.606 115)">
            <animateTransform xmlns="http://www.w3.org/2000/svg" attributeName="transform" type="translate" values="-300 115; 1440 115" keyTimes="0;1" dur="25s" repeatCount="indefinite" begin="-20.548391482921794s"/>
            <path xmlns="http://www.w3.org/2000/svg" d="M386.604,337.364 C374.598,337.364 364.86,347.103 364.86,359.118 C364.86,359.214 364.867,359.309 364.868,359.405 C350.663,361.383 339.725,373.57 339.725,388.319 C339.725,404.448 352.801,417.524 368.93,417.524 C369.137,417.524 369.34,417.513 369.546,417.509 C369.756,417.515 369.966,417.524 370.178,417.524 L450.966,417.524 C453.151,418.03 455.423,418.306 457.762,418.306 C474.372,418.306 487.837,404.84 487.837,388.23 C487.837,371.62 474.372,358.155 457.762,358.155 C455.692,358.155 453.672,358.364 451.719,358.763 C448.287,348.987 438.981,341.976 428.032,341.976 C419.489,341.976 411.947,346.247 407.413,352.767 C404.695,343.851 396.409,337.364 386.604,337.364 z" transform="scale(0.4)"/>
        </g>

        <g xmlns="http://www.w3.org/2000/svg" transform="translate(980.606 115)">
            <animateTransform xmlns="http://www.w3.org/2000/svg" attributeName="transform" type="translate" values="-300 115; 1440 115" keyTimes="0;1" dur="25s" repeatCount="indefinite" begin="-7.248391482921794s"/>
            <path xmlns="http://www.w3.org/2000/svg" d="M386.604,337.364 C374.598,337.364 364.86,347.103 364.86,359.118 C364.86,359.214 364.867,359.309 364.868,359.405 C350.663,361.383 339.725,373.57 339.725,388.319 C339.725,404.448 352.801,417.524 368.93,417.524 C369.137,417.524 369.34,417.513 369.546,417.509 C369.756,417.515 369.966,417.524 370.178,417.524 L450.966,417.524 C453.151,418.03 455.423,418.306 457.762,418.306 C474.372,418.306 487.837,404.84 487.837,388.23 C487.837,371.62 474.372,358.155 457.762,358.155 C455.692,358.155 453.672,358.364 451.719,358.763 C448.287,348.987 438.981,341.976 428.032,341.976 C419.489,341.976 411.947,346.247 407.413,352.767 C404.695,343.851 396.409,337.364 386.604,337.364 z" transform="scale(0.4)"/>
        </g>
        <!-- ./End Seventh Row -->
    </g>
</svg>