<svg xmlns="http://www.w3.org/2000/svg" xmlns:xlink="http://www.w3.org/1999/xlink" width="50px" height="50px" viewBox="0 0 250 250" version="1.1">
    <defs>
        <linearGradient id="linear0" gradientUnits="userSpaceOnUse" x1="14.916" y1="233.2" x2="491.07" y2="233.2">
            <stop offset="0" style="stop-color:rgb(0%,68.235294%,93.72549%);stop-opacity:1;"/>
            <stop offset="0.0992" style="stop-color:rgb(0%,68.627451%,93.72549%);stop-opacity:0.901961;"/>
            <stop offset="0.223" style="stop-color:rgb(0%,69.803922%,94.117647%);stop-opacity:0.776471;"/>
            <stop offset="0.36" style="stop-color:rgb(0%,72.156863%,94.509804%);stop-opacity:0.639216;"/>
            <stop offset="0.5064" style="stop-color:rgb(0%,76.078431%,95.294118%);stop-opacity:0.494118;"/>
            <stop offset="0.6604" style="stop-color:rgb(42.745098%,81.176471%,96.470588%);stop-opacity:0.341176;"/>
            <stop offset="0.8208" style="stop-color:rgb(69.019608%,88.627451%,98.039216%);stop-opacity:0.180392;"/>
            <stop offset="0.9835" style="stop-color:rgb(96.078431%,98.431373%,99.607843%);stop-opacity:0.0156863;"/>
            <stop offset="1" style="stop-color:rgb(100%,100%,100%);stop-opacity:0;"/>
        </linearGradient>
    </defs>
    <g id="surface1">
        <path style="fill-rule:nonzero;fill:url(#linear0);stroke-width:15;stroke-linecap:butt;stroke-linejoin:miter;stroke:rgb(8, 12, 15);stroke-opacity:1;stroke-miterlimit:10;" d="M 237.703125 98.023438 C 209.179688 99.648438 180.992188 116.1875 163.039062 138.234375 C 156.21875 146.609375 155.5 160.804688 146.070312 166.898438 C 136.195312 173.28125 121.421875 167.71875 110.492188 168.695312 C 91.4375 170.40625 67.75 183.875 52.640625 195.070312 C 31.46875 210.773438 13.539062 240.351562 15.007812 267.242188 C 16.710938 298.492188 27.507812 323.492188 48.53125 340.539062 C 69.554688 357.585938 81.484375 363.257812 90.007812 366.671875 C 98.53125 370.078125 423.242188 367.804688 423.242188 367.804688 C 423.242188 367.804688 475.234375 333.148438 482.617188 318.375 C 497.234375 289.140625 494.367188 244.25 462.460938 228.132812 C 456.15625 224.945312 449.367188 222.953125 442.28125 222.828125 C 434.140625 222.695312 422.742188 230.984375 417.65625 221.6875 C 413.898438 214.835938 416.140625 205.804688 413.171875 198.664062 C 406.429688 182.453125 389.742188 170.640625 373.039062 166.578125 C 367.984375 165.351562 362.804688 164.796875 357.617188 164.5 C 353.171875 164.242188 347.953125 166.148438 343.632812 164.835938 C 338.25 163.203125 336.234375 157.492188 333.523438 152.914062 C 312.867188 118.007812 279.539062 95.609375 237.6875 97.992188 Z M 237.703125 98.023438 " transform="matrix(0.5,0,0,0.5,0,0)"/>
    </g>
</svg>